<?xml version="1.0" standalone="no"?>
<!DOCTYPE svg PUBLIC "-//W3C//DTD SVG 20010904//EN"
 "http://www.w3.org/TR/2001/REC-SVG-20010904/DTD/svg10.dtd">
<svg version="1.0" xmlns="http://www.w3.org/2000/svg"
 width="396.000000pt" height="396.000000pt" viewBox="0 0 396.000000 396.000000"
 preserveAspectRatio="xMidYMid meet">
<metadata>
Created by potrace 1.11, written by Peter Selinger 2001-2013
</metadata>
<g transform="translate(0.000000,396.000000) scale(0.100000,-0.100000)"
fill="#000000" stroke="none">
<path d="M0 3770 c0 -178 1 -190 18 -190 11 0 31 -11 47 -24 15 -13 41 -27 57
-30 30 -6 47 -31 32 -46 -5 -5 -36 -2 -72 7 -47 12 -66 13 -75 4 -8 -8 -7 -11
6 -11 10 0 25 -4 35 -9 28 -14 65 -29 89 -36 13 -3 30 -13 38 -21 20 -20 73
-35 81 -23 3 5 2 18 -1 29 -8 27 24 27 52 1 20 -19 20 -19 37 18 9 21 16 47
16 59 0 11 5 24 10 27 6 3 8 20 5 37 -7 40 -13 48 -31 48 -8 0 -14 4 -14 8 0
11 -68 35 -79 27 -5 -3 -15 11 -22 30 -7 19 -17 35 -22 35 -4 0 -5 5 -2 10 3
6 -1 10 -9 10 -23 0 -30 19 -16 45 19 35 8 53 -29 47 -31 -4 -36 2 -32 36 1 6
-2 12 -7 12 -5 0 -12 9 -15 20 -4 14 2 23 21 32 52 26 38 38 -42 38 l-76 0 0
-190z m156 -115 c-3 -9 1 -18 9 -21 32 -13 15 -32 -26 -30 -31 1 -45 7 -56 23
-14 21 -14 23 8 32 39 16 72 13 65 -4z m-106 -35 c0 -19 -11 -26 -23 -14 -8 8
3 34 14 34 5 0 9 -9 9 -20z"/>
<path d="M2240 3920 c0 -22 5 -40 10 -40 6 0 10 -47 10 -120 0 -73 4 -120 10
-120 13 0 13 -37 1 -45 -6 -3 -8 -14 -6 -24 2 -11 -5 -23 -19 -31 -20 -10 -29
-8 -67 16 -42 27 -69 33 -213 49 -27 3 -65 9 -85 14 -20 6 -94 11 -166 12
-130 2 -211 -6 -221 -22 -3 -5 -27 -9 -53 -9 -26 0 -56 -7 -67 -15 -10 -8 -33
-15 -51 -15 -23 0 -33 -6 -38 -21 -5 -14 -13 -19 -26 -16 -10 3 -19 1 -19 -3
0 -5 -15 -14 -34 -20 -19 -6 -39 -17 -46 -25 -6 -7 -23 -16 -37 -20 -15 -3
-35 -16 -45 -27 -10 -12 -18 -18 -18 -13 0 4 -15 -4 -34 -19 -40 -30 -61 -32
-179 -10 -74 14 -93 14 -113 4 -13 -8 -24 -18 -24 -23 0 -5 -21 -34 -46 -63
-37 -44 -51 -54 -77 -54 -24 0 -37 7 -52 30 -15 22 -25 28 -42 24 -14 -4 -23
-2 -23 5 0 6 11 11 25 11 25 0 34 14 16 25 -5 3 -9 19 -9 35 1 45 -21 79 -66
102 -38 19 -40 19 -53 3 -7 -10 -10 -28 -7 -41 3 -12 1 -31 -5 -42 -9 -17 -7
-24 14 -40 28 -22 33 -52 10 -52 -8 0 -15 -8 -15 -19 0 -30 -25 -43 -91 -47
-54 -3 -62 -1 -66 16 -8 30 -30 24 -37 -10 -4 -23 -11 -30 -29 -30 -14 0 -32
-11 -45 -30 -20 -27 -26 -29 -67 -25 l-45 5 0 -1310 0 -1309 47 0 c77 1 193
-62 179 -96 -3 -8 0 -16 7 -19 7 -2 -4 -5 -23 -5 -19 0 -57 10 -83 23 -46 23
-47 24 -21 30 25 7 26 8 9 26 -21 23 -84 27 -103 8 -7 -7 -12 -40 -12 -80 0
-63 2 -68 28 -83 l27 -15 -27 6 -28 6 0 -181 0 -181 487 0 c406 0 484 2 469
13 -17 13 -18 22 -6 158 11 126 16 148 37 172 13 16 21 32 18 37 -3 4 8 10 25
12 16 2 27 1 24 -4 -3 -4 0 -8 5 -8 18 0 12 28 -6 33 -14 4 -15 5 -2 6 8 0 25
-8 37 -19 25 -24 30 -15 6 11 -10 11 -12 19 -4 24 6 4 16 -8 25 -27 8 -18 14
-27 15 -20 0 7 4 11 9 7 5 -3 12 -1 16 5 3 5 -3 10 -14 10 -13 0 -21 6 -21 18
0 12 3 13 8 5 11 -18 194 -22 200 -5 2 7 11 12 21 12 9 0 22 5 28 11 12 12
104 8 103 -5 -1 -5 9 -14 22 -20 14 -7 23 -21 23 -36 1 -14 4 -31 8 -37 10
-16 -5 -17 -19 -3 -7 7 -11 6 -11 -5 0 -8 6 -15 13 -15 6 0 15 -7 18 -16 5
-14 4 -15 -8 -5 -8 7 -21 9 -27 5 -9 -5 -6 -10 8 -15 15 -6 19 -14 15 -38 -2
-19 0 -31 7 -31 6 0 11 14 11 31 0 24 4 30 18 27 9 -2 18 -12 19 -23 8 -69 8
-94 1 -125 -5 -19 -10 -41 -12 -49 -1 -7 -10 -18 -20 -23 -15 -9 -17 -6 -14
24 2 18 8 32 13 30 6 -2 13 7 17 20 10 37 9 88 -2 88 -5 0 -10 -10 -11 -22 -1
-43 -9 -71 -23 -82 -8 -6 -16 -22 -18 -36 -3 -24 -8 -25 -98 -36 -66 -7 -97
-7 -102 0 -4 6 -14 3 -27 -8 -16 -15 -30 -17 -65 -13 -32 5 -47 2 -56 -8 -6
-8 -35 -16 -63 -18 -29 -2 165 -4 430 -5 l482 -2 -5 25 c-3 19 0 25 14 25 11
0 27 -9 36 -19 17 -19 17 -20 -6 -24 -13 -2 412 -5 945 -6 l967 -1 0 1980 0
1980 -789 0 c-744 0 -790 -1 -794 -17 -4 -17 -5 -17 -6 0 -1 24 -43 22 -59 -3
-7 -11 -19 -20 -27 -20 -8 0 -15 9 -15 20 0 11 -7 20 -15 20 -11 0 -15 -11
-15 -40z m70 -290 c0 -5 -2 -10 -4 -10 -3 0 -8 5 -11 10 -3 6 -1 10 4 10 6 0
11 -4 11 -10z m7 -76 c-3 -3 -12 -4 -19 -1 -8 3 -5 6 6 6 11 1 17 -2 13 -5z
m-444 -481 c26 -3 47 -1 47 4 0 5 26 9 58 10 31 0 49 -1 40 -4 -19 -5 -25 -23
-8 -23 15 0 12 -47 -2 -53 -7 -3 3 -6 22 -8 25 -1 29 -3 12 -6 -12 -3 -28 -13
-35 -24 -6 -10 -20 -19 -29 -19 -10 0 -18 -6 -18 -14 0 -8 -5 -16 -11 -18 -8
-3 -7 -14 5 -35 20 -41 20 -43 -4 -43 -12 0 -20 7 -21 18 0 13 -2 14 -6 2 -8
-20 -40 -48 -64 -55 -11 -4 -19 -11 -19 -17 0 -7 -5 -7 -14 1 -7 6 -27 10 -43
9 -16 -1 -43 4 -59 10 -22 10 -42 10 -74 3 -31 -7 -48 -7 -57 1 -20 17 -91 3
-111 -22 -20 -25 -92 -38 -125 -22 -12 5 -30 13 -41 16 -18 6 -18 7 -1 26 16
18 16 18 -4 13 -16 -4 -22 1 -27 23 -16 62 -10 89 31 130 45 45 78 64 110 64
12 0 39 7 58 15 24 10 71 15 134 16 54 0 116 4 138 8 22 5 47 6 55 4 8 -3 36
-8 63 -10z m60 -253 c3 -11 1 -23 -4 -26 -5 -3 -9 6 -9 20 0 31 6 34 13 6z
m-1659 -56 c7 -19 -1 -34 -19 -34 -18 0 -28 17 -21 35 7 20 32 19 40 -1z
m1118 -251 c10 -9 18 -22 18 -29 0 -19 -58 -60 -80 -56 -9 2 -20 -4 -23 -13
-4 -8 -13 -15 -22 -15 -8 0 -15 -7 -15 -16 0 -13 -3 -14 -14 -5 -15 13 -36
-10 -66 -74 -25 -51 -70 -87 -107 -83 -38 3 -55 -10 -31 -23 25 -14 12 -35
-20 -33 -15 0 -41 -6 -59 -14 -29 -14 -31 -17 -15 -28 14 -11 15 -15 3 -26
-10 -9 -12 -9 -7 0 4 6 3 12 -3 12 -5 0 -11 -6 -14 -12 -2 -7 -8 -10 -12 -5
-13 11 23 78 45 84 11 3 20 8 20 12 0 20 169 211 212 240 22 14 55 43 75 64
40 41 83 49 115 20z m678 -53 c0 -5 -6 -10 -12 -11 -7 0 -4 -4 7 -9 17 -7 16
-9 -10 -10 -16 -1 -24 -4 -17 -7 31 -12 6 -23 -58 -23 -83 0 -160 -15 -217
-42 -32 -15 -53 -18 -83 -13 -22 4 -40 11 -40 15 0 21 67 53 138 66 42 7 111
20 152 27 94 18 140 20 140 7z m656 -204 c0 -14 -6 -22 -13 -19 -16 6 -16 16
-1 31 16 16 16 16 14 -12z m-1801 -28 c24 -18 25 -22 10 -30 -10 -6 -21 -5
-31 2 -16 14 -94 5 -105 -12 -4 -6 -9 -7 -13 0 -3 5 6 21 21 36 32 32 80 34
118 4z m-578 -70 c-3 -7 -5 -2 -5 12 0 14 2 19 5 13 2 -7 2 -19 0 -25z m603
28 c0 -3 -4 -8 -10 -11 -5 -3 -10 -1 -10 4 0 6 5 11 10 11 6 0 10 -2 10 -4z
m51 -57 c-16 -6 -28 -6 -35 1 -7 7 1 10 25 9 32 0 33 -1 10 -10z m1520 -40
c11 -11 19 -25 19 -32 0 -7 11 -28 25 -47 14 -19 25 -42 25 -52 0 -10 5 -18
11 -18 20 0 37 -26 44 -67 9 -54 -6 -83 -43 -81 -38 2 -101 -8 -135 -21 -43
-16 -157 -14 -157 3 0 16 75 70 88 62 14 -8 53 39 47 56 -4 9 -2 19 4 23 15 9
14 35 -2 35 -10 0 -11 17 -6 77 4 43 6 80 3 82 -3 3 6 10 18 17 19 10 24 10
32 -3 4 -8 17 -24 27 -34z m-1584 -15 c-3 -3 -12 -4 -19 -1 -8 3 -5 6 6 6 11
1 17 -2 13 -5z m-160 -36 c-3 -7 -5 -2 -5 12 0 14 2 19 5 13 2 -7 2 -19 0 -25z
m113 7 c0 -8 8 -16 18 -17 9 0 22 -2 29 -2 33 -3 21 -16 -15 -16 -33 0 -40 -3
-36 -15 4 -8 1 -15 -5 -15 -6 0 -11 17 -11 40 0 22 5 40 10 40 6 0 10 -7 10
-15z m62 -92 c-2 -13 -8 -23 -13 -23 -5 0 -9 -12 -9 -26 0 -14 -4 -22 -10 -19
-6 3 -7 -1 -4 -10 4 -8 1 -22 -6 -30 -19 -22 -18 -124 0 -136 13 -8 13 -10 0
-19 -13 -9 -13 -11 0 -20 8 -5 25 -10 38 -10 30 0 28 -16 -3 -24 -14 -4 -25
-11 -25 -16 0 -6 -7 -10 -15 -10 -8 0 -15 -6 -16 -12 0 -7 -4 -4 -9 7 -7 15
-9 16 -9 4 -1 -17 -31 -49 -31 -33 0 5 5 27 11 48 8 30 13 36 21 25 7 -10 8
-7 4 11 -6 29 18 311 27 327 5 8 14 8 30 0 17 -8 22 -17 19 -34z m-72 5 c0 -7
-4 -19 -9 -27 -7 -10 -9 -7 -8 12 2 26 17 39 17 15z m594 -51 c17 -26 -2 -45
-69 -73 -33 -14 -65 -27 -71 -30 -21 -9 46 111 68 123 24 13 57 4 72 -20z
m460 -83 c19 -45 0 -72 -48 -69 -44 2 -58 19 -45 52 7 20 5 23 -14 24 -17 1
-18 2 -4 6 9 2 17 8 17 11 0 4 19 6 41 6 36 -1 43 -5 53 -30z m-719 -64 c-6
-9 -9 -9 -16 1 -10 17 0 34 13 21 6 -6 7 -16 3 -22z m-288 -32 c-3 -8 -6 -5
-6 6 -1 11 2 17 5 13 3 -3 4 -12 1 -19z m187 -81 c-6 -34 -23 -46 -59 -40 -27
4 -36 1 -47 -16 -15 -25 -64 -30 -54 -5 3 9 6 23 7 32 0 11 2 12 6 5 2 -7 12
-13 20 -13 13 0 13 3 3 15 -10 12 -10 15 3 15 8 0 20 7 28 16 7 8 26 21 43 28
26 11 33 10 42 -3 7 -8 10 -24 8 -34z m240 -38 c19 -15 26 -30 26 -54 l0 -33
-76 1 c-48 0 -78 5 -80 12 -9 23 16 65 48 79 45 20 51 19 82 -5z m-414 -9 c0
-5 -5 -10 -11 -10 -5 0 -7 5 -4 10 3 6 8 10 11 10 2 0 4 -4 4 -10z m648 -76
c12 -14 22 -31 22 -39 0 -20 -20 -29 -33 -16 -6 6 -44 11 -84 11 -71 0 -73 1
-73 25 0 19 7 26 28 31 15 3 38 9 52 14 34 11 61 3 88 -26z m-731 -196 c-3 -8
-6 -5 -6 6 -1 11 2 17 5 13 3 -3 4 -12 1 -19z m-5 -96 c-4 -53 14 -193 28
-227 21 -50 43 -116 39 -119 -9 -9 -59 7 -59 19 0 7 -7 16 -16 19 -9 3 -14 12
-11 19 5 15 -45 37 -83 37 -16 0 -30 7 -34 16 -3 8 -2 12 4 9 6 -3 10 0 10 9
0 8 -5 16 -12 18 -9 3 -9 12 1 36 7 17 17 29 22 26 5 -3 9 0 9 5 0 6 -5 11
-11 11 -10 0 43 111 69 142 8 10 19 15 25 11 6 -4 8 0 4 11 -5 12 -3 16 5 13
9 -2 12 -20 10 -55z m-161 -228 c-5 -21 -9 -30 -10 -19 -1 24 10 67 15 62 3
-2 0 -22 -5 -43z m-14 -76 c-3 -8 -6 -5 -6 6 -1 11 2 17 5 13 3 -3 4 -12 1
-19z m98 -18 c-3 -5 -13 -10 -21 -10 -8 0 -14 5 -14 10 0 6 9 10 21 10 11 0
17 -4 14 -10z m-173 -107 c-7 -56 -17 -36 -13 24 3 41 6 51 10 34 4 -14 5 -40
3 -58z m242 55 c-9 -32 -25 -50 -39 -44 -7 2 -18 0 -24 -5 -8 -6 -8 -5 -1 3 6
7 10 20 10 30 0 17 25 37 48 38 9 0 11 -7 6 -22z m76 -40 c0 -16 -3 -19 -11
-11 -6 6 -8 16 -5 22 11 17 16 13 16 -11z m-511 -45 c-12 -15 -12 -16 3 -11 9
4 23 -1 33 -12 15 -17 15 -19 -7 -34 -12 -9 -27 -16 -33 -16 -5 0 -21 -6 -35
-13 -14 -8 -35 -16 -48 -19 -18 -5 -20 -3 -13 10 5 10 22 30 39 45 25 25 30
26 42 12 7 -8 17 -15 22 -15 6 0 0 9 -13 19 -24 20 -24 20 -4 35 26 20 31 20
14 -1z m178 -110 c-3 -10 -5 -4 -5 12 0 17 2 24 5 18 2 -7 2 -21 0 -30z m-341
-50 c-5 -16 -4 -16 6 -3 16 19 50 23 60 7 4 -6 0 -20 -9 -29 -10 -11 -12 -18
-5 -18 7 0 12 -4 12 -10 0 -18 -26 -10 -48 15 -12 14 -27 25 -32 25 -6 0 -6 6
2 15 17 19 21 19 14 -2z m331 -40 c-3 -10 -5 -4 -5 12 0 17 2 24 5 18 2 -7 2
-21 0 -30z m916 -70 c-7 -2 -19 -2 -25 0 -7 3 -2 5 12 5 14 0 19 -2 13 -5z
m-18 -23 c13 -6 5 -7 -25 -3 -25 3 -47 7 -49 9 -9 8 55 2 74 -6z m-908 -62
c-2 -13 -4 -5 -4 17 -1 22 1 32 4 23 2 -10 2 -28 0 -40z m713 17 c0 -8 -7 -15
-16 -15 -14 0 -14 3 -4 15 7 8 14 15 16 15 2 0 4 -7 4 -15z m-1060 -35 c0 -5
-2 -10 -4 -10 -3 0 -8 5 -11 10 -3 6 -1 10 4 10 6 0 11 -4 11 -10z m1391 -173
c-13 -13 -15 11 -4 40 7 16 8 15 11 -6 2 -13 -1 -28 -7 -34z m55 -4 c-11 -11
-17 4 -9 23 7 18 8 18 11 1 2 -10 1 -21 -2 -24z m41 -5 c-3 -7 -5 -2 -5 12 0
14 2 19 5 13 2 -7 2 -19 0 -25z m-71 -96 c-13 -13 -17 9 -10 50 l9 43 3 -44
c2 -23 1 -46 -2 -49z m41 16 c-2 -13 -4 -3 -4 22 0 25 2 35 4 23 2 -13 2 -33
0 -45z m40 -5 c-2 -16 -4 -5 -4 22 0 28 2 40 4 28 2 -13 2 -35 0 -50z m40 -5
c-2 -13 -4 -3 -4 22 0 25 2 35 4 23 2 -13 2 -33 0 -45z m-148 -25 c0 -5 -4
-17 -9 -28 -8 -18 -9 -17 -9 8 -1 15 4 27 9 27 6 0 10 -3 9 -7z m38 -35 c-3
-7 -5 -2 -5 12 0 14 2 19 5 13 2 -7 2 -19 0 -25z m49 6 c-4 -9 -9 -15 -11 -12
-3 3 -3 13 1 22 4 9 9 15 11 12 3 -3 3 -13 -1 -22z m37 -4 c-3 -12 -8 -19 -11
-16 -5 6 5 36 12 36 2 0 2 -9 -1 -20z"/>
<path d="M1281 2904 c0 -11 3 -14 6 -6 3 7 2 16 -1 19 -3 4 -6 -2 -5 -13z"/>
<path d="M1305 2460 c3 -5 8 -10 11 -10 2 0 4 5 4 10 0 6 -5 10 -11 10 -5 0
-7 -4 -4 -10z"/>
<path d="M352 710 c-7 -11 -8 -20 -3 -20 9 0 24 30 18 36 -1 2 -8 -6 -15 -16z"/>
<path d="M210 3856 c0 -9 7 -16 16 -16 17 0 14 22 -4 28 -7 2 -12 -3 -12 -12z"/>
<path d="M0 3219 c0 -5 5 -7 10 -4 5 3 10 8 10 11 0 2 -4 4 -10 4 -5 0 -10 -5
-10 -11z"/>
<path d="M1438 443 c6 -2 18 -2 25 0 6 3 1 5 -13 5 -14 0 -19 -2 -12 -5z"/>
<path d="M1361 416 c9 -9 89 -14 83 -5 -3 5 -24 9 -46 9 -23 0 -39 -2 -37 -4z"/>
<path d="M1195 401 c9 -9 55 -9 50 0 -3 5 -17 8 -30 7 -13 -1 -22 -4 -20 -7z"/>
<path d="M1235 370 c3 -5 10 -10 16 -10 5 0 9 5 9 10 0 6 -7 10 -16 10 -8 0
-12 -4 -9 -10z"/>
<path d="M1288 353 c7 -3 16 -2 19 1 4 3 -2 6 -13 5 -11 0 -14 -3 -6 -6z"/>
<path d="M1310 319 c0 -5 5 -7 10 -4 6 3 10 8 10 11 0 2 -4 4 -10 4 -5 0 -10
-5 -10 -11z"/>
<path d="M1418 323 c7 -3 16 -2 19 1 4 3 -2 6 -13 5 -11 0 -14 -3 -6 -6z"/>
<path d="M1450 321 c0 -5 5 -13 10 -16 6 -3 10 -2 10 4 0 5 -4 13 -10 16 -5 3
-10 2 -10 -4z"/>
<path d="M1266 295 c-3 -9 -6 -22 -5 -28 0 -7 5 -1 10 12 5 13 8 26 5 28 -2 2
-6 -3 -10 -12z"/>
<path d="M1262 220 c0 -19 2 -27 5 -17 2 9 2 25 0 35 -3 9 -5 1 -5 -18z"/>
<path d="M1421 214 c0 -11 3 -14 6 -6 3 7 2 16 -1 19 -3 4 -6 -2 -5 -13z"/>
<path d="M1490 173 c-3 -23 -2 -39 3 -34 5 5 7 24 5 42 -3 33 -4 33 -8 -8z"/>
<path d="M1252 145 c0 -16 2 -22 5 -12 2 9 2 23 0 30 -3 6 -5 -1 -5 -18z"/>
<path d="M1002 110 c0 -19 2 -27 5 -17 2 9 2 25 0 35 -3 9 -5 1 -5 -18z"/>
<path d="M1452 100 c0 -19 2 -27 5 -17 2 9 2 25 0 35 -3 9 -5 1 -5 -18z"/>
</g>
</svg>
